<!DOCTYPE svg PUBLIC "-//W3C//DTD SVG 1.1//EN" "http://www.w3.org/Graphics/SVG/1.1/DTD/svg11.dtd">
<!-- Uploaded to: SVG Repo, www.svgrepo.com, Transformed by: SVG Repo Mixer Tools -->
<svg width="800px" height="800px" viewBox="0 0 24 24" fill="none" xmlns="http://www.w3.org/2000/svg" aria-labelledby="controlCentreIconTitle" stroke="#ffffff" stroke-width="2" stroke-linecap="round" stroke-linejoin="round" color="#000000">

<g id="SVGRepo_bgCarrier" stroke-width="0"/>

<g id="SVGRepo_tracerCarrier" stroke-linecap="round" stroke-linejoin="round"/>

<g id="SVGRepo_iconCarrier"> <title id="controlCentreIconTitle">Control Centre</title> <path d="M4 6.5C4 4.567 5.567 3 7.5 3L16.5 3C18.433 3 20 4.567 20 6.5V6.5C20 8.433 18.433 10 16.5 10L7.5 10C5.567 10 4 8.433 4 6.5V6.5Z"/> <path d="M20 17.5C20 19.433 18.433 21 16.5 21L7.5 21C5.567 21 4 19.433 4 17.5V17.5C4 15.567 5.567 14 7.5 14L16.5 14C18.433 14 20 15.567 20 17.5V17.5Z"/> <circle cx="16.5" cy="17.5" r="1"/> <circle cx="7.5" cy="6.5" r="1"/> </g>

</svg>