<!DOCTYPE svg PUBLIC "-//W3C//DTD SVG 1.1//EN" "http://www.w3.org/Graphics/SVG/1.1/DTD/svg11.dtd">
<!-- Uploaded to: SVG Repo, www.svgrepo.com, Transformed by: SVG Repo Mixer Tools -->
<svg height="256px" width="256px" version="1.1" id="Layer_1" xmlns="http://www.w3.org/2000/svg" xmlns:xlink="http://www.w3.org/1999/xlink" viewBox="0 0 512 512" xml:space="preserve" fill="#000000">
<g id="SVGRepo_bgCarrier" stroke-width="0"/>
<g id="SVGRepo_tracerCarrier" stroke-linecap="round" stroke-linejoin="round"/>
<g id="SVGRepo_iconCarrier"> <g> <path style="fill:#556080;" d="M476.69,423.725H35.31c-19.5,0-35.31-15.81-35.31-35.31c0-19.5,15.81-35.31,35.31-35.31H476.69 c19.5,0,35.31,15.81,35.31,35.31C512,407.914,496.19,423.725,476.69,423.725"/> <path style="fill:#C69666;" d="M459.034,353.104H247.172V158.897c0-9.754,7.901-17.655,17.655-17.655h176.552 c9.754,0,17.655,7.901,17.655,17.655V353.104z"/> <path style="fill:#A98258;" d="M229.517,105.931h-52.966v-8.775c0-4.899-3.981-8.881-8.881-8.881h-52.86 c-4.899,0-8.881,3.981-8.881,8.881v8.775H52.966c-9.754,0-17.655,7.901-17.655,17.655v229.517h211.862V123.587 C247.172,113.832,239.272,105.931,229.517,105.931"/> <g> <path style="fill:#E8D5B2;" d="M165.914,183.543l-24.673-24.673l-24.673,24.673c-3.928,3.928-10.637,1.148-10.637-4.405V97.156 c0-4.899,3.981-8.881,8.881-8.881h52.86c4.899,0,8.881,3.981,8.881,8.881v81.982C176.552,184.69,169.843,187.471,165.914,183.543"/> <polygon style="fill:#E8D5B2;" points="344.276,317.794 414.897,317.794 414.897,264.828 344.276,264.828 "/> </g> <g> <path style="fill:#738CBF;" d="M52.966,388.414c0-4.873-3.955-8.828-8.828-8.828s-8.828,3.955-8.828,8.828 c0,4.873,3.955,8.828,8.828,8.828S52.966,393.287,52.966,388.414"/> <path style="fill:#738CBF;" d="M88.276,388.414c0-4.873-3.955-8.828-8.828-8.828c-4.873,0-8.828,3.955-8.828,8.828 c0,4.873,3.955,8.828,8.828,8.828C84.321,397.242,88.276,393.287,88.276,388.414"/> <path style="fill:#738CBF;" d="M123.586,388.414c0-4.873-3.955-8.828-8.828-8.828s-8.828,3.955-8.828,8.828 c0,4.873,3.955,8.828,8.828,8.828S123.586,393.287,123.586,388.414"/> <path style="fill:#738CBF;" d="M158.897,388.414c0-4.873-3.955-8.828-8.828-8.828c-4.873,0-8.828,3.955-8.828,8.828 c0,4.873,3.955,8.828,8.828,8.828C154.942,397.242,158.897,393.287,158.897,388.414"/> <path style="fill:#738CBF;" d="M194.207,388.414c0-4.873-3.955-8.828-8.828-8.828c-4.873,0-8.828,3.955-8.828,8.828 c0,4.873,3.955,8.828,8.828,8.828C190.252,397.242,194.207,393.287,194.207,388.414"/> <path style="fill:#738CBF;" d="M229.517,388.414c0-4.873-3.955-8.828-8.828-8.828c-4.873,0-8.828,3.955-8.828,8.828 c0,4.873,3.955,8.828,8.828,8.828C225.562,397.242,229.517,393.287,229.517,388.414"/> <path style="fill:#738CBF;" d="M264.828,388.414c0-4.873-3.955-8.828-8.828-8.828s-8.828,3.955-8.828,8.828 c0,4.873,3.955,8.828,8.828,8.828S264.828,393.287,264.828,388.414"/> <path style="fill:#738CBF;" d="M300.138,388.414c0-4.873-3.955-8.828-8.828-8.828c-4.873,0-8.828,3.955-8.828,8.828 c0,4.873,3.955,8.828,8.828,8.828C296.183,397.242,300.138,393.287,300.138,388.414"/> <path style="fill:#738CBF;" d="M335.448,388.414c0-4.873-3.955-8.828-8.828-8.828c-4.873,0-8.828,3.955-8.828,8.828 c0,4.873,3.955,8.828,8.828,8.828C331.493,397.242,335.448,393.287,335.448,388.414"/> <path style="fill:#738CBF;" d="M370.759,388.414c0-4.873-3.955-8.828-8.828-8.828s-8.828,3.955-8.828,8.828 c0,4.873,3.955,8.828,8.828,8.828S370.759,393.287,370.759,388.414"/> <path style="fill:#738CBF;" d="M406.069,388.414c0-4.873-3.955-8.828-8.828-8.828c-4.873,0-8.828,3.955-8.828,8.828 c0,4.873,3.955,8.828,8.828,8.828C402.114,397.242,406.069,393.287,406.069,388.414"/> <path style="fill:#738CBF;" d="M441.379,388.414c0-4.873-3.955-8.828-8.828-8.828s-8.828,3.955-8.828,8.828 c0,4.873,3.955,8.828,8.828,8.828S441.379,393.287,441.379,388.414"/> <path style="fill:#738CBF;" d="M476.69,388.414c0-4.873-3.955-8.828-8.828-8.828s-8.828,3.955-8.828,8.828 c0,4.873,3.955,8.828,8.828,8.828S476.69,393.287,476.69,388.414"/> </g> </g> </g>
</svg>