<?xml version="1.0" encoding="UTF-8" standalone="no" ?>
<!DOCTYPE svg PUBLIC "-//W3C//DTD SVG 1.1//EN" "http://www.w3.org/Graphics/SVG/1.1/DTD/svg11.dtd">
<svg xmlns="http://www.w3.org/2000/svg" xmlns:xlink="http://www.w3.org/1999/xlink" version="1.1" width="640" height="640" viewBox="0 0 640 640" xml:space="preserve">
<desc>Created with Fabric.js 5.3.0</desc>
<defs>
</defs>
<g transform="matrix(3.0326678136 0 0 3.0326678136 267.5983280261 404.2172620449)" id="I3Ci53FAx_3IquMRafddz"  >
<path style="stroke: rgb(243,243,243); stroke-width: 3; stroke-dasharray: none; stroke-linecap: butt; stroke-dashoffset: 0; stroke-linejoin: miter; stroke-miterlimit: 4; fill: rgb(255,255,255); fill-opacity: 0; fill-rule: nonzero; opacity: 1;"  transform=" translate(0, 0)" d="M -2.33162 -22.79138 C -2.33162 -22.79138 -16.30333 -13.13397 6.55826 22.79138" stroke-linecap="round" />
</g>
<g transform="matrix(3.0326678136 0 0 3.0326678136 303.8329477554 476.368607591)" id="eE_u2-78Y_0R9r6zJi1L4"  >
<path style="stroke: rgb(243,243,243); stroke-width: 3; stroke-dasharray: none; stroke-linecap: butt; stroke-dashoffset: 0; stroke-linejoin: miter; stroke-miterlimit: 4; fill: rgb(255,255,255); fill-opacity: 0; fill-rule: nonzero; opacity: 1;"  transform=" translate(0, 0)" d="M -5.43844 -1.06465 C -5.43844 -1.06465 -2.34458 3.1631599999999995 5.43843 -0.2959600000000001" stroke-linecap="round" />
</g>
<g transform="matrix(-3.0326678136 0 0 3.0326678136 336.2669268587 476.3686040369)" id="-a4x8AmGN6UuvE8gfgBTR"  >
<path style="stroke: rgb(243,243,243); stroke-width: 3; stroke-dasharray: none; stroke-linecap: butt; stroke-dashoffset: 0; stroke-linejoin: miter; stroke-miterlimit: 4; fill: rgb(255,255,255); fill-opacity: 0; fill-rule: nonzero; opacity: 1;"  transform=" translate(0, 0)" d="M -5.43844 -1.06465 C -5.43844 -1.06465 -2.34458 3.1631599999999995 5.43843 -0.2959600000000001" stroke-linecap="round" />
</g>
<g transform="matrix(3.0326678136 0 0 3.0326678136 262.0689198261 334.9720931781)" id="YqwzNvdGK7HCfpUGqJuzf"  >
<path style="stroke: rgb(243,243,243); stroke-width: 3; stroke-dasharray: none; stroke-linecap: butt; stroke-dashoffset: 0; stroke-linejoin: miter; stroke-miterlimit: 4; fill: rgb(255,255,255); fill-opacity: 0; fill-rule: nonzero; opacity: 1;"  transform=" translate(0, 0)" d="M 0 0" stroke-linecap="round" />
</g>
<g transform="matrix(3.0326678136 0 0 3.0326678136 298.0037847674 316.7855335301)" id="og71szX-j8M_w3TsbkMwP"  >
<path style="stroke: rgb(243,243,243); stroke-width: 3; stroke-dasharray: none; stroke-linecap: butt; stroke-dashoffset: 0; stroke-linejoin: miter; stroke-miterlimit: 4; fill: rgb(255,255,255); fill-opacity: 0; fill-rule: nonzero; opacity: 1;"  transform=" translate(0, 0)" d="M -7.5372 0.94475 C -7.5372 0.94475 0.08187999999999995 -3.30664 7.53721 0.94475" stroke-linecap="round" />
</g>
<g transform="matrix(-3.0326678136 0 0 3.0326678136 372.5407528006 404.2172552228)" id="ZAdmbAcmuZFeFuv8MN1-v"  >
<path style="stroke: rgb(243,243,243); stroke-width: 3; stroke-dasharray: none; stroke-linecap: butt; stroke-dashoffset: 0; stroke-linejoin: miter; stroke-miterlimit: 4; fill: rgb(255,255,255); fill-opacity: 0; fill-rule: nonzero; opacity: 1;"  transform=" translate(0, 0)" d="M -2.33162 -22.79138 C -2.33162 -22.79138 -16.30333 -13.13397 6.55826 22.79138" stroke-linecap="round" />
</g>
<g transform="matrix(-3.0326678136 0 0 3.0326678136 320.0346329171 474.8522736842)" id="WV8GDwwqMYTSVrK3XEWoP"  >
<path style="stroke: rgb(243,243,243); stroke-width: 3; stroke-dasharray: none; stroke-linecap: butt; stroke-dashoffset: 0; stroke-linejoin: miter; stroke-miterlimit: 4; fill: rgb(255,255,255); fill-opacity: 0; fill-rule: nonzero; opacity: 1;"  transform=" translate(0, 0)" d="M 0 0" stroke-linecap="round" />
</g>
<g transform="matrix(-3.0326678136 0 0 3.0326678136 412.0202587756 239.9332996271)" id="7SrK1qlOmBOQ1OUcu7Exm"  >
<path style="stroke: rgb(243,243,243); stroke-width: 3; stroke-dasharray: none; stroke-linecap: butt; stroke-dashoffset: 0; stroke-linejoin: miter; stroke-miterlimit: 4; fill: rgb(255,255,255); fill-opacity: 0; fill-rule: nonzero; opacity: 1;"  transform=" translate(0, 0)" d="M 15.8048 26.22464 C 15.8048 26.22464 -12.849899999999998 19.49852 -15.8048 -26.224649999999997" stroke-linecap="round" />
</g>
<g transform="matrix(-3.0326678136 0 0 3.0326678136 419.7407135964 247.8617416011)" id="rDG2Lv0U1VoBOV5-bAz1k"  >
<path style="stroke: rgb(243,243,243); stroke-width: 3; stroke-dasharray: none; stroke-linecap: butt; stroke-dashoffset: 0; stroke-linejoin: miter; stroke-miterlimit: 4; fill: rgb(255,255,255); fill-opacity: 0; fill-rule: nonzero; opacity: 1;"  transform=" translate(0, 0)" d="M 13.64567 28.83899 C 13.64567 28.83899 -17.22052 13.15199 -13.301799999999998 -28.83899" stroke-linecap="round" />
</g>
<g transform="matrix(3.0326678136 0 0 3.0326678136 228.2111716632 239.9332996271)" id="S0rKmSuS9fQiDYDCGzdzt"  >
<path style="stroke: rgb(243,243,243); stroke-width: 3; stroke-dasharray: none; stroke-linecap: butt; stroke-dashoffset: 0; stroke-linejoin: miter; stroke-miterlimit: 4; fill: rgb(255,255,255); fill-opacity: 0; fill-rule: nonzero; opacity: 1;"  transform=" translate(0, 0)" d="M 15.8048 26.22464 C 15.8048 26.22464 -12.849899999999998 19.49852 -15.8048 -26.224649999999997" stroke-linecap="round" />
</g>
<g transform="matrix(3.0326678136 0 0 3.0326678136 220.2592815487 247.8617395623)" id="Uo3VMamF1rIH8rlbbD1Tv"  >
<path style="stroke: rgb(243,243,243); stroke-width: 3; stroke-dasharray: none; stroke-linecap: butt; stroke-dashoffset: 0; stroke-linejoin: miter; stroke-miterlimit: 4; fill: rgb(255,255,255); fill-opacity: 0; fill-rule: nonzero; opacity: 1;"  transform=" translate(0, 0)" d="M 13.64567 28.83899 C 13.64567 28.83899 -17.22052 13.15199 -13.301799999999998 -28.83899" stroke-linecap="round" />
</g>
<g transform="matrix(-3.0326678136 0 0 3.0326678136 342.2318088512 316.785536009)" id="vrZ_tCV8Ch8wQm_QFf0Gw"  >
<path style="stroke: rgb(243,243,243); stroke-width: 3; stroke-dasharray: none; stroke-linecap: butt; stroke-dashoffset: 0; stroke-linejoin: miter; stroke-miterlimit: 4; fill: rgb(255,255,255); fill-opacity: 0; fill-rule: nonzero; opacity: 1;"  transform=" translate(0, 0)" d="M -7.5372 0.94475 C -7.5372 0.94475 0.08187999999999995 -3.30664 7.53721 0.94475" stroke-linecap="round" />
</g>
<g transform="matrix(3.0326678136 0 0 3.0326678136 320.0346329171 474.8522736842)" id="wxFzLCSsJg25p_iKAehZe"  >
<path style="stroke: rgb(243,243,243); stroke-width: 3; stroke-dasharray: none; stroke-linecap: butt; stroke-dashoffset: 0; stroke-linejoin: miter; stroke-miterlimit: 4; fill: rgb(255,255,255); fill-opacity: 0; fill-rule: nonzero; opacity: 1;"  transform=" translate(0, 0)" d="M 0 0" stroke-linecap="round" />
</g>
</svg>